<mxfile host="app.diagrams.net" agent="Mozilla/5.0 (Macintosh; Intel Mac OS X 10_15_7) AppleWebKit/537.36 (KHTML, like Gecko) Chrome/131.0.0.0 Safari/537.36" version="24.8.8">
  <diagram name="Page-1" id="VlkWucVssow_5AqG0P-i">
    <mxGraphModel dx="1363" dy="874" grid="1" gridSize="10" guides="1" tooltips="1" connect="1" arrows="1" fold="1" page="1" pageScale="1" pageWidth="1169" pageHeight="827" math="0" shadow="0">
      <root>
        <mxCell id="0" />
        <mxCell id="1" parent="0" />
        <mxCell id="B_jjZCTcYZ8CAd-L9BAq-10" style="edgeStyle=orthogonalEdgeStyle;rounded=0;orthogonalLoop=1;jettySize=auto;html=1;entryX=0;entryY=0.5;entryDx=0;entryDy=0;" edge="1" parent="1" source="B_jjZCTcYZ8CAd-L9BAq-1" target="B_jjZCTcYZ8CAd-L9BAq-2">
          <mxGeometry relative="1" as="geometry">
            <Array as="points">
              <mxPoint x="300" y="250" />
            </Array>
          </mxGeometry>
        </mxCell>
        <mxCell id="B_jjZCTcYZ8CAd-L9BAq-1" value="Parent" style="rounded=1;whiteSpace=wrap;html=1;fontFamily=Tahoma;fontSize=18;fontStyle=1" vertex="1" parent="1">
          <mxGeometry x="250" y="130" width="120" height="60" as="geometry" />
        </mxCell>
        <mxCell id="B_jjZCTcYZ8CAd-L9BAq-2" value="Child 1" style="rounded=1;whiteSpace=wrap;html=1;fontSize=16;fontFamily=Tahoma;" vertex="1" parent="1">
          <mxGeometry x="390" y="220" width="120" height="60" as="geometry" />
        </mxCell>
        <mxCell id="B_jjZCTcYZ8CAd-L9BAq-3" value="Child 2" style="rounded=1;whiteSpace=wrap;html=1;fontSize=16;fontFamily=Tahoma;" vertex="1" parent="1">
          <mxGeometry x="390" y="320" width="120" height="60" as="geometry" />
        </mxCell>
        <mxCell id="B_jjZCTcYZ8CAd-L9BAq-4" value="Child 3" style="rounded=1;whiteSpace=wrap;html=1;fontSize=16;fontFamily=Tahoma;" vertex="1" parent="1">
          <mxGeometry x="390" y="420" width="120" height="60" as="geometry" />
        </mxCell>
        <mxCell id="B_jjZCTcYZ8CAd-L9BAq-5" value="Child n" style="rounded=1;whiteSpace=wrap;html=1;fontSize=16;fontFamily=Tahoma;" vertex="1" parent="1">
          <mxGeometry x="390" y="520" width="120" height="60" as="geometry" />
        </mxCell>
        <mxCell id="B_jjZCTcYZ8CAd-L9BAq-11" style="edgeStyle=orthogonalEdgeStyle;rounded=0;orthogonalLoop=1;jettySize=auto;html=1;" edge="1" parent="1">
          <mxGeometry relative="1" as="geometry">
            <mxPoint x="300" y="190" as="sourcePoint" />
            <mxPoint x="390" y="350" as="targetPoint" />
            <Array as="points">
              <mxPoint x="300" y="350" />
              <mxPoint x="390" y="350" />
            </Array>
          </mxGeometry>
        </mxCell>
        <mxCell id="B_jjZCTcYZ8CAd-L9BAq-12" style="edgeStyle=orthogonalEdgeStyle;rounded=0;orthogonalLoop=1;jettySize=auto;html=1;entryX=0;entryY=0.5;entryDx=0;entryDy=0;" edge="1" parent="1" target="B_jjZCTcYZ8CAd-L9BAq-4">
          <mxGeometry relative="1" as="geometry">
            <mxPoint x="300" y="190" as="sourcePoint" />
            <mxPoint x="400" y="360" as="targetPoint" />
            <Array as="points">
              <mxPoint x="300" y="450" />
            </Array>
          </mxGeometry>
        </mxCell>
        <mxCell id="B_jjZCTcYZ8CAd-L9BAq-13" style="edgeStyle=orthogonalEdgeStyle;rounded=0;orthogonalLoop=1;jettySize=auto;html=1;entryX=0;entryY=0.5;entryDx=0;entryDy=0;" edge="1" parent="1" target="B_jjZCTcYZ8CAd-L9BAq-5">
          <mxGeometry relative="1" as="geometry">
            <mxPoint x="300" y="190" as="sourcePoint" />
            <mxPoint x="410" y="450" as="targetPoint" />
            <Array as="points">
              <mxPoint x="300" y="190" />
              <mxPoint x="300" y="550" />
            </Array>
          </mxGeometry>
        </mxCell>
      </root>
    </mxGraphModel>
  </diagram>
</mxfile>
